<svg xmlns="http://www.w3.org/2000/svg" xmlns:xlink="http://www.w3.org/1999/xlink" viewBox="2325 2184.312 94.673 28.689">
  <defs>
    <style>
      .cls-1 {
        fill: #16376b;
      }

      .cls-2 {
        fill-rule: evenodd;
        fill: url(#linear-gradient);
      }
    </style>
    <linearGradient id="linear-gradient" y1="0.498" x2="0.998" y2="0.498" gradientUnits="objectBoundingBox">
      <stop offset="0" stop-color="#ffb140"/>
      <stop offset="1" stop-color="#c95e5a"/>
    </linearGradient>
  </defs>
  <g id="Group_126" data-name="Group 126" transform="translate(2325 2184.312)">
    <g id="Group_4" data-name="Group 4" transform="translate(46.959 4.53)">
      <g id="Group_3" data-name="Group 3">
        <path id="Path_2" data-name="Path 2" class="cls-1" d="M31.1,11.64h0a6.041,6.041,0,0,1,12.079-.151h0a5.93,5.93,0,0,1-6.04,5.889A5.632,5.632,0,0,1,31.1,11.64Zm9.513,0h0A3.586,3.586,0,0,0,37.14,7.865a3.452,3.452,0,0,0-3.473,3.624h0a3.546,3.546,0,0,0,3.473,3.624C39.4,15.264,40.613,13.6,40.613,11.64Z" transform="translate(-31.1 -1.674)"/>
        <path id="Path_3" data-name="Path 3" class="cls-1" d="M40.151,7.059a1.359,1.359,0,1,1,2.718,0v.6A3.935,3.935,0,0,1,46.342,5.7a3.659,3.659,0,0,1,3.473,1.963A4.514,4.514,0,0,1,53.589,5.7c2.416,0,3.926,1.51,3.926,4.379v6.04a1.359,1.359,0,0,1-2.718,0V10.834c0-1.812-.906-2.718-2.265-2.718s-2.416,1.057-2.416,2.869v5.285a1.359,1.359,0,0,1-2.718,0V10.834c0-1.812-.906-2.718-2.265-2.718a2.47,2.47,0,0,0-2.416,2.718v5.285a1.359,1.359,0,0,1-2.718,0V7.059Z" transform="translate(-26.562 -1.623)"/>
        <path id="Path_4" data-name="Path 4" class="cls-1" d="M52.8,7.059a1.359,1.359,0,0,1,2.718,0v.6A4.2,4.2,0,0,1,59.142,5.7c2.567,0,4.077,1.661,4.077,4.379v6.04a1.359,1.359,0,0,1-2.718,0V10.834c0-1.812-.906-2.718-2.416-2.718a2.548,2.548,0,0,0-2.567,2.869v5.285a1.359,1.359,0,0,1-2.718,0Z" transform="translate(-20.035 -1.623)"/>
        <path id="Path_5" data-name="Path 5" class="cls-1" d="M60.7,4.208C60.7,3.453,61.3,3,62.21,3s1.51.453,1.51,1.208v.151a1.394,1.394,0,0,1-1.51,1.359,1.427,1.427,0,0,1-1.51-1.51Zm.151,4.228a1.359,1.359,0,0,1,2.718,0V17.5a1.359,1.359,0,0,1-2.718,0Z" transform="translate(-16.006 -3)"/>
      </g>
    </g>
    <path id="Path_6" data-name="Path 6" class="cls-2" d="M26.726,0H0C.453,1.812,1.812,3.171,3.02,3.171h14.8A20.611,20.611,0,0,0,15.25,5.738H3.926c.453,1.812,1.812,3.171,3.02,3.171h6.644a11.444,11.444,0,0,0-.906,2.416H7.852C8.3,13.136,9.664,14.5,10.871,14.5H31.859c-.453,1.812-1.812,3.171-3.02,3.171H12.834a7.434,7.434,0,0,0,.906,2.567H27.934c-.453,1.812-1.812,3.171-3.02,3.171H15.7A14.313,14.313,0,1,0,26.726,0Z"/>
  </g>
</svg>
